<svg width="600" height="400" viewBox="0 0 600 400" fill="none" xmlns="http://www.w3.org/2000/svg">
  <rect width="600" height="400" fill="white" fill-opacity="0"/>
  
  <!-- Brain representing AI -->
  <ellipse cx="300" cy="200" rx="150" ry="120" fill="#e0e7ff" stroke="#6d28d9" stroke-width="3"/>
  
  <!-- Brain patterns -->
  <path d="M200 150 Q250 100 300 150 Q350 200 400 150" stroke="#8b5cf6" stroke-width="3" fill="none"/>
  <path d="M200 200 Q250 250 300 200 Q350 150 400 200" stroke="#8b5cf6" stroke-width="3" fill="none"/>
  <path d="M200 250 Q250 200 300 250 Q350 300 400 250" stroke="#8b5cf6" stroke-width="3" fill="none"/>
  
  <!-- Data points and connections -->
  <circle cx="170" cy="150" r="10" fill="#6d28d9"/>
  <circle cx="150" cy="200" r="10" fill="#8b5cf6"/>
  <circle cx="170" cy="250" r="10" fill="#a78bfa"/>
  
  <circle cx="430" cy="150" r="10" fill="#6d28d9"/>
  <circle cx="450" cy="200" r="10" fill="#8b5cf6"/>
  <circle cx="430" cy="250" r="10" fill="#a78bfa"/>
  
  <!-- Data input/output-->
  <rect x="80" y="120" width="60" height="160" rx="5" fill="#f3f4f6" stroke="#6d28d9" stroke-width="2"/>
  <text x="110" y="200" text-anchor="middle" font-family="Arial" font-size="14" fill="#4c1d95">Skin Data</text>
  
  <rect x="460" y="120" width="60" height="160" rx="5" fill="#f3f4f6" stroke="#6d28d9" stroke-width="2"/>
  <text x="490" y="200" text-anchor="middle" font-family="Arial" font-size="14" fill="#4c1d95">Analysis</text>
  
  <!-- Connection lines -->
  <line x1="140" y1="150" x2="170" y2="150" stroke="#6d28d9" stroke-width="2"/>
  <line x1="140" y1="200" x2="150" y2="200" stroke="#8b5cf6" stroke-width="2"/>
  <line x1="140" y1="250" x2="170" y2="250" stroke="#a78bfa" stroke-width="2"/>
  
  <line x1="430" y1="150" x2="460" y2="150" stroke="#6d28d9" stroke-width="2"/>
  <line x1="450" y1="200" x2="460" y2="200" stroke="#8b5cf6" stroke-width="2"/>
  <line x1="430" y1="250" x2="460" y2="250" stroke="#a78bfa" stroke-width="2"/>
  
  <!-- Sparkle effects to represent AI processing -->
  <circle cx="250" cy="130" r="5" fill="#c4b5fd"/>
  <circle cx="280" cy="180" r="5" fill="#c4b5fd"/>
  <circle cx="320" cy="210" r="5" fill="#c4b5fd"/>
  <circle cx="350" cy="160" r="5" fill="#c4b5fd"/>
  <circle cx="300" cy="240" r="5" fill="#c4b5fd"/>
</svg> 