<svg xmlns="http://www.w3.org/2000/svg" xmlns:xlink="http://www.w3.org/1999/xlink" width="500" zoomAndPan="magnify" viewBox="0 0 375 374.999991" height="500" preserveAspectRatio="xMidYMid meet" version="1.0"><path fill="#22d3ee" d="M 162.464844 283.367188 C 163.828125 294.566406 159.5625 303.632812 150.734375 310.269531 C 139.179688 318.917969 126.4375 320.699219 113.285156 314.238281 C 104.574219 309.972656 99.480469 302.742188 98.175781 293.027344 C 97.761719 289.945312 97.878906 286.804688 98.707031 283.722656 C 95.566406 282.480469 92.546875 280.820312 89.644531 279.042969 C 86.148438 284.789062 81.289062 288.878906 74.710938 290.597656 C 64.519531 293.203125 55.632812 290.300781 48.164062 283.25 C 40.878906 276.375 37.5 267.726562 38.210938 257.769531 C 39.101562 245.148438 47.632812 235.667969 59.007812 233.59375 C 63.273438 232.824219 67.480469 233.179688 71.628906 234.363281 C 72.578125 230.871094 73.585938 227.3125 75.246094 224.054688 C 83.007812 208.828125 95.332031 199.761719 112.160156 197.214844 C 125.433594 195.199219 137.519531 198.457031 147.769531 207.285156 C 155.949219 214.277344 160.570312 223.285156 161.871094 233.949219 C 163.296875 245.683594 160.390625 256.347656 153.753906 266.007812 C 153.636719 266.183594 153.519531 266.421875 153.398438 266.660156 C 158.496094 271.101562 161.695312 276.671875 162.464844 283.367188 Z M 335.484375 234.246094 C 333.945312 221.386719 324.347656 212.324219 311.429688 211.550781 C 311.371094 207.699219 311.015625 203.910156 310.066406 200.175781 C 304.316406 176.296875 281.742188 162.964844 259.582031 167.054688 C 235.464844 171.496094 217.984375 194.011719 219.40625 218.542969 C 219.703125 223.523438 220.769531 228.378906 222.546875 233.0625 C 222.371094 233.179688 222.191406 233.296875 222.015625 233.417969 C 214.253906 240.46875 210.992188 249.238281 212.949219 259.546875 C 216.265625 277.5 234.457031 288.34375 251.878906 283.011719 C 262.425781 279.753906 270.425781 270.273438 271.433594 259.84375 C 274.75 259.191406 278.007812 258.183594 281.148438 256.941406 C 282.039062 258.777344 283.164062 260.4375 284.527344 261.976562 C 290.925781 268.910156 298.925781 271.457031 308.167969 270.035156 C 325.117188 267.371094 337.5 251.015625 335.484375 234.246094 Z M 216.503906 112.835938 C 213.660156 107.503906 209.75 103.117188 205.007812 99.445312 C 206.429688 97.785156 207.558594 95.890625 208.503906 93.875 C 213.839844 82.5 210.875 69.34375 201.097656 61.582031 C 194.046875 56.011719 185.988281 54.292969 177.21875 55.835938 C 164.363281 58.085938 153.875 68.335938 152.746094 81.609375 C 152.332031 86.351562 153.164062 90.914062 155.414062 95.179688 C 151.265625 97.3125 147.355469 99.800781 143.683594 102.761719 C 143.5625 102.644531 143.445312 102.527344 143.265625 102.40625 C 135.269531 96.542969 126.617188 95.710938 117.609375 99.445312 C 102.265625 105.785156 94.382812 124.273438 100.191406 139.855469 C 104.871094 152.359375 116.957031 159.171875 129.996094 156.683594 C 130.113281 156.980469 130.289062 157.21875 130.410156 157.511719 C 132.363281 162.074219 134.972656 166.222656 138.46875 169.71875 C 150.378906 181.570312 164.71875 185.304688 180.953125 182.164062 C 200.863281 178.3125 217.511719 161.71875 220.890625 141.21875 C 222.609375 131.324219 221.304688 121.785156 216.503906 112.835938 Z M 216.503906 112.835938 " fill-opacity="1" fill-rule="nonzero"/><path fill="#3b82f6" d="M 98.769531 283.722656 C 101.613281 284.613281 104.457031 285.5 107.417969 285.976562 C 117.847656 287.574219 127.683594 285.796875 136.988281 280.878906 C 143.386719 277.5 148.660156 272.878906 153.042969 267.132812 C 153.164062 266.953125 153.339844 266.835938 153.457031 266.660156 C 158.554688 271.101562 161.753906 276.671875 162.523438 283.367188 C 163.886719 294.566406 159.621094 303.632812 150.792969 310.269531 C 139.238281 318.917969 126.5 320.699219 113.34375 314.238281 C 104.632812 309.972656 99.539062 302.742188 98.234375 293.027344 C 97.761719 289.886719 97.9375 286.804688 98.769531 283.722656 Z M 130.527344 315.128906 C 133.371094 314.890625 136.15625 314.238281 138.941406 313.527344 C 142.4375 312.578125 145.402344 310.683594 148.183594 308.433594 C 148.539062 308.136719 149.015625 307.722656 148.660156 307.1875 C 148.304688 306.59375 147.769531 306.949219 147.355469 307.1875 C 146.40625 307.660156 145.460938 308.136719 144.511719 308.667969 C 140.363281 310.921875 136.097656 312.933594 131.476562 314 C 130.882812 314.121094 130.289062 314.296875 129.757812 314.476562 C 129.519531 314.535156 129.402344 314.710938 129.460938 314.949219 C 129.519531 315.128906 129.699219 315.1875 129.875 315.1875 C 130.113281 315.128906 130.289062 315.128906 130.527344 315.128906 Z M 153.101562 303.394531 C 153.101562 303.039062 152.867188 302.804688 152.453125 302.742188 C 151.800781 302.683594 150.320312 303.871094 150.199219 304.519531 C 150.140625 304.875 150.257812 305.054688 150.554688 305.171875 C 151.207031 305.46875 153.042969 304.164062 153.101562 303.394531 Z M 71.6875 234.363281 C 71.039062 238.097656 70.621094 241.890625 70.800781 245.683594 C 71.332031 255.398438 74.238281 264.167969 81.167969 271.339844 C 83.660156 273.945312 86.207031 276.433594 89.109375 278.566406 C 89.289062 278.6875 89.464844 278.921875 89.644531 279.042969 C 86.148438 284.789062 81.289062 288.878906 74.710938 290.597656 C 64.519531 293.203125 55.632812 290.300781 48.164062 283.25 C 40.878906 276.375 37.5 267.726562 38.210938 257.769531 C 39.101562 245.148438 47.632812 235.667969 59.007812 233.59375 C 63.335938 232.824219 67.542969 233.179688 71.6875 234.363281 Z M 67.542969 287.101562 C 67.835938 287.101562 68.3125 287.335938 68.429688 286.863281 C 68.546875 286.332031 68.074219 286.332031 67.71875 286.269531 C 66.296875 285.976562 65.054688 285.265625 63.691406 284.910156 C 59.898438 283.960938 56.460938 282.417969 53.4375 279.929688 C 51.601562 278.390625 49.527344 277.085938 48.046875 275.132812 C 47.808594 274.835938 47.75 274.183594 47.277344 274.421875 C 46.742188 274.714844 47.21875 275.25 47.394531 275.605469 C 47.515625 275.84375 47.632812 276.019531 47.75 276.257812 C 50.0625 279.8125 53.320312 282.359375 56.875 284.554688 C 60.195312 286.625 63.75 287.398438 67.542969 287.101562 Z M 45.144531 267.785156 C 44.90625 266.539062 44.609375 265.355469 44.195312 264.167969 C 44.019531 263.695312 43.722656 263.28125 43.128906 263.28125 C 42.535156 263.28125 42.300781 263.753906 42.179688 264.289062 C 41.765625 266.007812 42.417969 267.429688 43.308594 268.730469 C 43.542969 269.085938 44.019531 269.207031 44.492188 268.96875 C 45.023438 268.730469 45.144531 268.257812 45.144531 267.785156 Z M 205.070312 99.445312 C 200.089844 95.832031 194.640625 93.164062 188.597656 91.742188 C 177.8125 89.195312 167.324219 90.320312 157.191406 94.585938 C 156.660156 94.824219 156.066406 95 155.53125 95.238281 C 153.28125 90.972656 152.453125 86.410156 152.867188 81.667969 C 153.992188 68.394531 164.480469 58.085938 177.339844 55.894531 C 186.109375 54.351562 194.167969 56.070312 201.21875 61.640625 C 210.992188 69.402344 213.957031 82.558594 208.625 93.933594 C 207.617188 95.890625 206.492188 97.726562 205.070312 99.445312 Z M 208.503906 78.46875 C 208.503906 76.871094 208.210938 75.507812 207.558594 74.203125 C 206.429688 71.890625 205.007812 69.757812 203.585938 67.683594 C 202.816406 66.558594 201.808594 65.671875 200.742188 64.839844 C 200.210938 64.425781 199.617188 64.128906 198.90625 64.011719 C 198.609375 63.953125 198.3125 64.070312 198.195312 64.308594 C 198.078125 64.542969 198.253906 64.78125 198.433594 64.960938 C 198.667969 65.136719 198.847656 65.316406 199.085938 65.492188 C 201.039062 67.035156 202.519531 68.871094 203.707031 71.121094 C 204.949219 73.550781 205.542969 76.097656 206.195312 78.648438 C 206.371094 79.417969 206.550781 80.425781 207.617188 80.304688 C 208.683594 80.128906 208.445312 79.0625 208.503906 78.46875 Z M 158.257812 76.097656 C 158.375 76.394531 158.082031 76.871094 158.554688 76.871094 C 159.027344 76.929688 158.910156 76.453125 158.96875 76.160156 C 160.09375 73.3125 161.515625 70.648438 163.652344 68.394531 C 165.960938 65.96875 168.804688 64.367188 171.53125 62.472656 C 171.828125 62.234375 172.300781 62.117188 172.183594 61.640625 C 172.066406 61.167969 171.589844 61.285156 171.292969 61.34375 C 170.109375 61.582031 168.925781 61.699219 167.859375 62.351562 C 165.785156 63.597656 164.066406 65.136719 162.644531 67.152344 C 161.160156 69.285156 159.917969 71.535156 158.851562 73.90625 C 158.496094 74.675781 158.257812 75.328125 158.257812 76.097656 Z M 204.0625 75.980469 C 203.941406 75.507812 203.824219 74.914062 203.648438 74.382812 C 203.410156 73.550781 202.996094 72.898438 202.222656 72.425781 C 202.046875 72.308594 201.808594 72.1875 201.632812 72.308594 C 201.394531 72.425781 201.453125 72.664062 201.511719 72.898438 C 201.808594 74.203125 202.285156 75.386719 202.996094 76.515625 C 203.171875 76.808594 203.410156 76.871094 203.707031 76.75 C 204.0625 76.632812 204.0625 76.394531 204.0625 75.980469 Z M 165.960938 70.707031 C 166.671875 70.648438 168.332031 69.34375 168.507812 68.691406 C 168.6875 68.101562 168.449219 67.804688 167.859375 67.746094 C 167.027344 67.683594 165.429688 69.105469 165.367188 69.9375 C 165.308594 70.410156 165.546875 70.707031 165.960938 70.707031 Z M 206.429688 84.988281 C 206.371094 84.277344 206.550781 83.269531 205.425781 83.328125 C 204.296875 83.445312 204.714844 84.453125 204.773438 85.105469 C 204.832031 85.757812 204.832031 86.644531 205.71875 86.644531 C 206.609375 86.585938 206.371094 85.699219 206.429688 84.988281 Z M 281.210938 256.882812 C 284.941406 255.105469 288.558594 253.207031 291.816406 250.601562 C 302.601562 242.128906 309 231.105469 310.953125 217.539062 C 311.25 215.523438 311.308594 213.507812 311.429688 211.492188 C 324.347656 212.261719 333.945312 221.328125 335.484375 234.1875 C 337.5 251.015625 325.117188 267.308594 308.230469 269.917969 C 298.984375 271.339844 291.046875 268.792969 284.585938 261.859375 C 283.222656 260.378906 282.097656 258.71875 281.210938 256.882812 Z M 305.382812 266.894531 C 305.859375 266.835938 306.390625 266.835938 306.867188 266.777344 C 312.199219 266.539062 316.523438 263.933594 320.375 260.496094 C 320.554688 260.316406 320.789062 260.140625 320.613281 259.84375 C 320.375 259.488281 320.140625 259.785156 319.960938 259.902344 C 318.300781 261.089844 316.40625 261.742188 314.507812 262.511719 C 307.753906 265.355469 300.941406 265.828125 294.007812 262.984375 C 293.535156 262.808594 293.058594 262.6875 292.585938 262.511719 C 292.289062 262.390625 291.992188 262.332031 291.816406 262.628906 C 291.578125 263.042969 291.992188 263.164062 292.230469 263.398438 C 292.347656 263.457031 292.46875 263.578125 292.585938 263.636719 C 296.613281 265.886719 300.820312 267.074219 305.382812 266.894531 Z M 323.695312 258.066406 C 324.761719 258.066406 326.480469 256.109375 326.242188 255.105469 C 326.125 254.628906 325.769531 254.394531 325.351562 254.6875 C 324.347656 255.339844 323.457031 256.050781 323.101562 257.238281 C 322.984375 257.769531 323.277344 258.007812 323.695312 258.066406 Z M 312.910156 260.613281 C 314.6875 259.902344 316.40625 258.894531 317.886719 257.472656 C 318.003906 257.355469 318.066406 257.179688 317.886719 257 C 317.648438 256.820312 317.53125 257.058594 317.355469 257.179688 C 315.8125 258.183594 314.152344 258.957031 312.554688 259.84375 C 312.316406 259.960938 311.902344 259.902344 311.960938 260.316406 C 312.082031 260.671875 312.496094 260.496094 312.910156 260.613281 Z M 143.800781 102.761719 C 140.660156 105.667969 137.757812 108.6875 135.328125 112.125 C 129.222656 120.835938 126.023438 130.433594 126.320312 141.160156 C 126.4375 144.714844 126.914062 148.210938 128.097656 151.527344 C 128.691406 153.246094 129.640625 154.90625 130.171875 156.683594 C 117.136719 159.171875 105.050781 152.359375 100.367188 139.855469 C 94.5 124.332031 102.441406 105.785156 117.789062 99.445312 C 126.792969 95.710938 135.445312 96.542969 143.445312 102.40625 C 143.5625 102.527344 143.683594 102.644531 143.800781 102.761719 Z M 124.070312 100.394531 C 123.476562 100.394531 122.882812 100.394531 122.230469 100.394531 C 121.996094 100.394531 121.816406 100.453125 121.582031 100.511719 C 115.597656 102.050781 111.210938 105.726562 107.714844 110.644531 C 107.476562 110.941406 107.359375 111.355469 107.242188 111.710938 C 107.183594 111.886719 107.121094 112.183594 107.359375 112.304688 C 107.65625 112.480469 107.773438 112.242188 107.953125 112.007812 C 108.839844 110.464844 110.144531 109.28125 111.507812 108.214844 C 114.824219 105.546875 118.203125 103.058594 122.527344 102.347656 C 123.65625 102.171875 124.722656 101.875 125.847656 101.578125 C 126.203125 101.519531 126.734375 101.460938 126.617188 100.925781 C 126.558594 100.453125 126.082031 100.394531 125.726562 100.394531 C 125.195312 100.394531 124.660156 100.394531 124.070312 100.394531 Z M 131.121094 100.867188 C 130.644531 100.867188 130.054688 100.75 129.875 101.402344 C 129.699219 102.050781 130.289062 102.230469 130.765625 102.40625 C 131.355469 102.644531 132.007812 102.824219 132.71875 102.824219 C 133.074219 102.824219 133.371094 102.761719 133.492188 102.40625 C 133.609375 101.992188 133.492188 101.695312 133.136719 101.519531 C 132.542969 101.105469 131.890625 100.867188 131.121094 100.867188 Z M 222.546875 233.003906 C 223.734375 235.667969 225.035156 238.277344 226.695312 240.644531 C 234.339844 251.488281 244.414062 258.421875 257.804688 260.199219 C 262.367188 260.792969 266.929688 260.496094 271.492188 259.785156 C 270.484375 270.214844 262.425781 279.695312 251.9375 282.953125 C 234.519531 288.285156 216.328125 277.441406 213.007812 259.488281 C 211.113281 249.179688 214.3125 240.410156 222.074219 233.359375 C 222.191406 233.238281 222.371094 233.121094 222.546875 233.003906 Z M 239.730469 280.582031 C 239.910156 280.523438 240.503906 280.820312 240.679688 280.167969 C 240.796875 279.515625 240.265625 279.339844 239.792969 279.21875 C 239.082031 278.984375 238.367188 278.804688 237.65625 278.628906 C 233.332031 277.5625 229.304688 275.785156 226.222656 272.40625 C 225.925781 272.109375 225.570312 271.871094 225.214844 271.636719 C 224.859375 271.457031 224.445312 271.398438 224.148438 271.8125 C 223.910156 272.167969 224.03125 272.464844 224.265625 272.820312 C 225.273438 274.242188 226.339844 275.605469 227.703125 276.730469 C 230.960938 279.8125 235.167969 280.40625 239.730469 280.582031 Z M 252.292969 279.101562 C 254.191406 278.628906 255.789062 277.382812 257.09375 275.722656 C 257.210938 275.605469 257.269531 275.429688 257.332031 275.25 C 257.390625 274.953125 257.390625 274.65625 257.152344 274.480469 C 256.855469 274.300781 256.617188 274.359375 256.382812 274.539062 C 255.019531 275.785156 253.300781 276.554688 251.699219 277.441406 C 251.34375 277.679688 250.929688 277.917969 251.050781 278.390625 C 251.167969 278.984375 251.640625 279.042969 252.292969 279.101562 Z M 238.074219 277.796875 C 238.605469 277.796875 238.960938 277.738281 239.199219 277.382812 C 239.375 277.085938 239.199219 276.789062 238.902344 276.671875 C 237.65625 276.257812 236.710938 275.367188 235.585938 274.835938 C 235.109375 274.597656 234.578125 274.597656 234.28125 275.132812 C 233.984375 275.605469 234.222656 276.078125 234.636719 276.375 C 235.644531 277.085938 236.886719 277.5625 238.074219 277.796875 Z M 238.074219 277.796875 " fill-opacity="1" fill-rule="nonzero"/><path fill="#6366f1" d="M 152.746094 173.691406 C 152.273438 173.628906 152.15625 173.628906 152.035156 173.570312 C 147.535156 172.269531 143.445312 170.371094 140.421875 166.578125 C 139.535156 165.511719 138.703125 164.445312 137.816406 163.378906 C 135.683594 160.890625 134.675781 157.867188 133.847656 154.789062 C 133.785156 154.492188 133.667969 154.195312 133.964844 154.015625 C 134.378906 153.78125 134.4375 154.195312 134.558594 154.433594 C 134.972656 155.085938 135.445312 155.734375 135.742188 156.445312 C 136.988281 159.230469 138.824219 161.484375 140.71875 163.792969 C 143.800781 167.527344 147.769531 170.015625 151.917969 172.269531 C 152.214844 172.445312 152.570312 172.5625 152.867188 172.742188 C 153.101562 172.859375 153.28125 173.039062 153.222656 173.335938 C 153.042969 173.691406 152.746094 173.691406 152.746094 173.691406 Z M 165.785156 100.570312 C 170.347656 98.496094 175.203125 98.972656 180.003906 98.851562 C 180.476562 98.851562 181.070312 99.148438 181.25 98.496094 C 181.425781 97.84375 180.773438 97.726562 180.359375 97.550781 C 180.121094 97.429688 179.886719 97.371094 179.648438 97.3125 C 176.449219 96.421875 173.25 96.542969 170.050781 97.132812 C 167.796875 97.550781 165.722656 98.554688 163.945312 99.976562 C 163.234375 100.570312 162.464844 101.164062 162.820312 102.46875 C 163.769531 101.519531 164.71875 101.046875 165.785156 100.570312 Z M 216.328125 128.242188 C 216.503906 129.84375 216.800781 131.382812 216.859375 132.984375 C 216.917969 135.828125 216.445312 138.613281 216.148438 141.457031 C 215.972656 143.351562 215.792969 145.1875 215.617188 147.085938 C 215.617188 147.320312 215.4375 147.675781 215.910156 147.738281 C 216.265625 147.796875 216.445312 147.558594 216.5625 147.261719 C 216.625 147.144531 216.683594 147.027344 216.742188 146.847656 C 218.28125 141.871094 219.171875 136.894531 218.460938 131.679688 C 218.164062 129.605469 217.628906 127.648438 216.503906 125.515625 C 216.089844 126.640625 216.207031 127.414062 216.328125 128.242188 Z M 148.835938 165.570312 C 148.957031 165.214844 148.71875 164.980469 148.480469 164.800781 C 146.585938 163.558594 144.925781 161.957031 143.148438 160.535156 C 142.734375 160.238281 142.261719 159.941406 141.84375 160.417969 C 141.429688 160.832031 141.609375 161.246094 141.84375 161.660156 C 143.265625 164.089844 145.757812 164.921875 147.890625 165.867188 C 148.421875 165.925781 148.71875 165.925781 148.835938 165.570312 Z M 162.167969 175.882812 C 162.582031 175.882812 163.117188 175.882812 163.175781 175.347656 C 163.234375 174.757812 162.703125 174.695312 162.289062 174.636719 C 161.042969 174.339844 159.800781 174.105469 158.554688 173.867188 C 158.082031 173.75 157.429688 173.570312 157.25 174.28125 C 157.074219 174.992188 157.605469 175.289062 158.199219 175.46875 C 159.265625 175.761719 160.332031 175.882812 161.578125 175.941406 C 161.636719 175.941406 161.871094 175.941406 162.167969 175.882812 Z M 176.449219 102.761719 C 176.746094 102.761719 177.101562 102.882812 177.21875 102.40625 C 177.277344 101.992188 177.042969 101.757812 176.628906 101.636719 C 175.382812 101.28125 174.136719 101.105469 172.894531 101.222656 C 172.359375 101.28125 171.886719 101.460938 171.414062 101.757812 C 171.175781 101.933594 170.9375 102.113281 171.058594 102.40625 C 171.175781 102.703125 171.414062 102.644531 171.707031 102.644531 C 172.480469 102.644531 173.25 102.644531 174.019531 102.644531 C 174.847656 102.761719 175.679688 102.761719 176.449219 102.761719 Z M 215.320312 133.929688 C 214.609375 133.871094 214.550781 134.523438 214.488281 135.054688 C 214.371094 136.183594 214.195312 137.308594 214.074219 138.433594 C 214.015625 138.789062 213.898438 139.324219 214.371094 139.441406 C 214.90625 139.558594 215.082031 139.085938 215.261719 138.730469 C 215.675781 137.605469 215.792969 136.480469 215.972656 135.292969 C 215.972656 134.699219 216.089844 133.988281 215.320312 133.929688 Z M 250.695312 250.304688 C 251.167969 250.1875 251.878906 250.304688 251.9375 249.59375 C 251.996094 248.824219 251.34375 248.882812 250.8125 248.765625 C 242.929688 246.867188 236.234375 243.3125 232.148438 235.964844 C 232.027344 235.726562 231.851562 235.433594 231.671875 235.253906 C 231.316406 235.015625 231.4375 234.128906 230.84375 234.363281 C 230.191406 234.601562 230.546875 235.3125 230.546875 235.789062 C 230.546875 235.90625 230.605469 235.964844 230.667969 236.082031 C 231.4375 239.816406 233.867188 242.363281 236.589844 244.914062 C 240.5625 248.527344 245.242188 249.890625 250.515625 250.304688 C 250.457031 250.304688 250.574219 250.304688 250.695312 250.304688 Z M 297.265625 206.8125 C 297.265625 207.226562 297.386719 207.523438 297.800781 207.640625 C 298.214844 207.761719 298.511719 207.582031 298.6875 207.226562 C 298.867188 206.871094 298.984375 206.515625 299.042969 206.160156 C 299.460938 203.433594 299.816406 200.769531 299.339844 197.984375 C 298.808594 194.785156 297.621094 191.820312 295.902344 189.15625 C 295.546875 188.621094 295.074219 187.96875 294.363281 188.324219 C 293.59375 188.738281 294.1875 189.390625 294.363281 189.925781 C 296.023438 194.546875 297.386719 199.167969 297.207031 204.144531 C 297.265625 204.976562 297.265625 205.921875 297.265625 206.8125 Z M 233.570312 191.230469 C 233.984375 191.289062 233.984375 190.8125 234.101562 190.578125 C 234.933594 189.09375 235.878906 187.792969 236.945312 186.488281 C 239.613281 183.171875 242.8125 180.324219 246.25 177.777344 C 246.546875 177.542969 246.902344 177.363281 246.664062 176.949219 C 246.425781 176.535156 246.070312 176.535156 245.65625 176.710938 C 245.480469 176.832031 245.300781 176.890625 245.066406 177.007812 C 240.027344 179.734375 236.355469 183.703125 233.746094 188.800781 C 233.511719 189.273438 233.214844 189.804688 233.273438 190.519531 C 233.390625 190.636719 233.09375 191.109375 233.570312 191.230469 Z M 248.679688 244.734375 C 248.796875 244.320312 248.5 244.082031 248.144531 243.90625 C 245.539062 242.839844 243.109375 241.535156 240.859375 239.816406 C 240.503906 239.519531 240.085938 239.460938 239.671875 239.757812 C 239.316406 240.113281 239.375 240.527344 239.554688 240.941406 C 239.910156 241.710938 240.441406 242.363281 241.152344 242.777344 C 243.226562 244.023438 245.539062 244.675781 247.847656 245.148438 C 248.265625 245.207031 248.5625 245.148438 248.679688 244.734375 Z M 240.085938 187.792969 C 240.441406 187.96875 240.679688 187.671875 240.917969 187.4375 C 242.21875 186.015625 243.523438 184.59375 244.886719 183.171875 C 245.125 182.933594 245.242188 182.636719 245.125 182.339844 C 244.945312 181.925781 244.648438 181.867188 244.234375 181.925781 C 243.9375 181.984375 243.644531 182.042969 243.464844 182.222656 C 242.160156 183.171875 240.917969 184.238281 240.085938 185.71875 C 239.851562 186.132812 239.671875 186.546875 239.671875 186.960938 C 239.671875 187.257812 239.671875 187.613281 240.085938 187.792969 Z M 301.890625 194.726562 C 301.59375 194.308594 301.175781 193.953125 300.585938 194.25 C 300.050781 194.546875 300.230469 195.019531 300.347656 195.496094 C 300.820312 197.152344 301.296875 198.8125 301.472656 200.589844 C 301.53125 200.945312 301.472656 201.359375 301.949219 201.359375 C 302.363281 201.359375 302.601562 201.066406 302.660156 200.710938 C 302.777344 200.175781 302.777344 199.582031 302.835938 199.167969 C 302.777344 197.507812 302.835938 195.96875 301.890625 194.726562 Z M 250.457031 241.535156 C 250.574219 241.238281 250.457031 241 250.160156 240.941406 C 249.273438 240.707031 248.621094 240.113281 248.027344 239.460938 C 247.730469 239.164062 247.316406 239.046875 246.960938 239.285156 C 246.546875 239.578125 246.605469 240.054688 246.902344 240.410156 C 247.554688 241.296875 248.5 241.773438 249.507812 241.949219 C 249.921875 241.949219 250.277344 241.890625 250.457031 241.535156 Z M 304.734375 200 C 304.613281 199.582031 304.378906 199.289062 303.902344 199.40625 C 303.488281 199.464844 303.371094 199.878906 303.429688 200.234375 C 303.546875 201.242188 303.667969 202.25 303.785156 203.257812 C 303.84375 203.554688 303.84375 203.851562 304.257812 203.851562 C 304.613281 203.851562 304.792969 203.613281 304.851562 203.375 C 304.96875 202.960938 304.96875 202.488281 305.027344 202.011719 C 304.96875 201.300781 304.910156 200.648438 304.734375 200 Z M 158.082031 226.664062 C 156.953125 222.75 154.820312 219.433594 152.390625 216.292969 C 152.097656 215.878906 151.679688 215.167969 151.03125 215.699219 C 150.496094 216.113281 151.148438 216.589844 151.386719 216.945312 C 153.519531 220.675781 155.652344 224.410156 157.015625 228.5 C 157.546875 230.039062 158.019531 231.582031 158.496094 233.121094 C 158.554688 233.417969 158.613281 233.714844 158.96875 233.652344 C 159.324219 233.59375 159.324219 233.296875 159.324219 233.003906 C 159.324219 232.882812 159.324219 232.707031 159.324219 232.410156 C 159.148438 230.515625 158.613281 228.617188 158.082031 226.664062 Z M 122.230469 284.199219 C 122.648438 284.078125 123.476562 284.136719 123.417969 283.605469 C 123.359375 283.070312 122.589844 283.367188 122.113281 283.425781 C 117.433594 283.960938 112.75 284.433594 108.070312 283.605469 C 105.226562 283.128906 102.324219 282.65625 99.65625 281.53125 C 99.480469 281.472656 99.300781 281.058594 99.0625 281.414062 C 98.886719 281.648438 99.125 281.886719 99.300781 282.0625 C 99.894531 282.714844 100.722656 283.128906 101.554688 283.367188 C 105.523438 284.554688 109.613281 285.382812 113.996094 285.085938 C 116.601562 285.265625 119.449219 284.96875 122.230469 284.199219 Z M 89.347656 210.367188 C 86.085938 212.027344 84.015625 214.929688 81.761719 217.714844 C 80.695312 219.078125 79.984375 220.617188 79.390625 222.21875 C 79.214844 222.691406 79.035156 223.167969 79.15625 223.640625 C 79.214844 223.9375 79.214844 224.234375 79.570312 224.292969 C 79.984375 224.351562 79.984375 223.996094 80.042969 223.757812 C 80.398438 222.515625 80.992188 221.390625 81.820312 220.441406 C 83.066406 219.019531 84.191406 217.476562 85.257812 215.878906 C 86.382812 214.21875 87.570312 212.679688 89.167969 211.375 C 89.644531 211.019531 90.117188 210.664062 90.355469 210.070312 C 89.9375 209.894531 89.644531 210.25 89.347656 210.367188 Z M 127.386719 279.929688 C 128.335938 279.574219 129.164062 278.984375 129.640625 278.09375 C 129.816406 277.796875 129.996094 277.441406 129.640625 277.144531 C 129.285156 276.851562 128.988281 277.027344 128.691406 277.265625 C 126.734375 278.449219 124.601562 279.339844 122.351562 279.992188 C 120.574219 280.523438 118.796875 280.996094 116.957031 281.058594 C 116.722656 281.058594 116.484375 281.058594 116.484375 281.351562 C 116.484375 281.589844 116.664062 281.648438 116.898438 281.707031 C 117.492188 281.886719 118.144531 281.945312 118.796875 281.945312 C 121.699219 281.53125 124.601562 280.9375 127.386719 279.929688 Z M 126.144531 282.65625 C 126.617188 282.714844 127.089844 282.773438 127.566406 282.597656 C 129.816406 281.886719 131.949219 280.996094 134.023438 279.992188 C 135.5625 279.277344 136.808594 278.210938 138.054688 277.027344 C 138.347656 276.730469 138.824219 276.433594 138.527344 275.960938 C 138.171875 275.488281 137.757812 275.902344 137.402344 276.140625 C 135.148438 277.441406 132.957031 278.863281 130.527344 279.929688 C 128.988281 280.582031 127.566406 281.589844 126.082031 282.417969 C 126.144531 282.480469 126.144531 282.597656 126.144531 282.65625 Z M 153.28125 223.402344 C 152.332031 220.855469 151.148438 218.367188 149.074219 216.46875 C 148.835938 216.234375 148.539062 215.699219 148.125 216.054688 C 147.710938 216.410156 148.125 216.765625 148.304688 217.0625 C 149.726562 219.136719 151.148438 221.210938 152.273438 223.460938 C 152.390625 223.699219 152.511719 223.9375 152.746094 223.996094 C 153.042969 224.171875 153.339844 224.113281 153.28125 223.640625 C 153.339844 223.582031 153.339844 223.523438 153.28125 223.402344 Z M 87.332031 215.996094 C 85.496094 217.242188 85.019531 219.316406 84.25 221.152344 C 84.191406 221.328125 84.191406 221.566406 84.429688 221.683594 C 84.664062 221.746094 84.785156 221.566406 84.84375 221.449219 C 85.375 220.558594 86.148438 219.90625 86.800781 219.078125 C 87.390625 218.308594 87.867188 217.417969 88.339844 216.53125 C 88.578125 216.113281 88.457031 215.757812 87.867188 215.699219 C 87.6875 215.820312 87.511719 215.878906 87.332031 215.996094 Z M 147 211.078125 C 146.230469 209.539062 144.808594 208.648438 143.5625 207.523438 C 143.445312 207.40625 143.207031 207.40625 143.089844 207.582031 C 142.910156 207.761719 142.910156 207.9375 143.03125 208.175781 C 143.976562 209.539062 145.042969 210.722656 146.230469 211.789062 C 146.40625 211.96875 146.703125 212.027344 146.941406 211.847656 C 147.058594 211.730469 147.179688 211.550781 147.117188 211.316406 C 147.117188 211.257812 147.058594 211.195312 147 211.078125 Z M 82.296875 224.882812 C 82.296875 225.179688 82.296875 225.714844 82.710938 225.535156 C 83.125 225.359375 83.066406 224.707031 83.183594 224.292969 C 83.242188 224.054688 83.125 223.878906 82.710938 223.9375 C 82.296875 223.996094 82.296875 224.46875 82.296875 224.882812 Z M 82.296875 224.882812 " fill-opacity="1" fill-rule="nonzero"/><path fill="#22d3ee" d="M 130.527344 315.128906 C 130.289062 315.128906 130.113281 315.128906 129.875 315.128906 C 129.699219 315.128906 129.519531 315.128906 129.460938 314.890625 C 129.402344 314.652344 129.519531 314.476562 129.757812 314.417969 C 130.351562 314.238281 130.882812 314.0625 131.476562 313.941406 C 136.097656 312.875 140.363281 310.863281 144.511719 308.609375 C 145.460938 308.078125 146.40625 307.601562 147.355469 307.128906 C 147.769531 306.890625 148.304688 306.59375 148.660156 307.128906 C 149.015625 307.660156 148.539062 308.078125 148.183594 308.371094 C 145.402344 310.625 142.496094 312.519531 138.941406 313.46875 C 136.15625 314.238281 133.371094 314.890625 130.527344 315.128906 Z M 152.453125 302.804688 C 151.800781 302.742188 150.320312 303.929688 150.199219 304.582031 C 150.140625 304.9375 150.257812 305.113281 150.554688 305.230469 C 151.207031 305.46875 153.042969 304.226562 153.101562 303.453125 C 153.101562 303.039062 152.867188 302.804688 152.453125 302.804688 Z M 68.429688 286.863281 C 68.546875 286.332031 68.074219 286.332031 67.71875 286.269531 C 66.296875 285.976562 65.054688 285.265625 63.691406 284.910156 C 59.898438 283.960938 56.460938 282.417969 53.4375 279.929688 C 51.601562 278.390625 49.527344 277.085938 48.046875 275.132812 C 47.808594 274.835938 47.75 274.183594 47.277344 274.421875 C 46.742188 274.714844 47.21875 275.25 47.394531 275.605469 C 47.515625 275.84375 47.632812 276.019531 47.75 276.257812 C 50.0625 279.8125 53.320312 282.359375 56.875 284.554688 C 60.136719 286.507812 63.691406 287.277344 67.480469 287.042969 C 67.835938 287.101562 68.3125 287.335938 68.429688 286.863281 Z M 44.195312 264.167969 C 44.019531 263.695312 43.722656 263.28125 43.128906 263.28125 C 42.535156 263.28125 42.300781 263.753906 42.179688 264.289062 C 41.765625 266.007812 42.417969 267.429688 43.308594 268.730469 C 43.542969 269.085938 44.019531 269.207031 44.492188 268.96875 C 45.023438 268.730469 45.144531 268.257812 45.144531 267.726562 C 44.964844 266.539062 44.667969 265.296875 44.195312 264.167969 Z M 207.558594 74.203125 C 206.429688 71.890625 205.007812 69.757812 203.585938 67.683594 C 202.816406 66.558594 201.808594 65.671875 200.742188 64.839844 C 200.210938 64.425781 199.617188 64.128906 198.90625 64.011719 C 198.609375 63.953125 198.3125 64.070312 198.195312 64.308594 C 198.078125 64.542969 198.253906 64.78125 198.433594 64.960938 C 198.667969 65.136719 198.847656 65.316406 199.085938 65.492188 C 201.039062 67.035156 202.519531 68.871094 203.707031 71.121094 C 204.949219 73.550781 205.542969 76.097656 206.195312 78.648438 C 206.371094 79.417969 206.550781 80.425781 207.617188 80.304688 C 208.683594 80.128906 208.445312 79.0625 208.503906 78.46875 C 208.445312 76.871094 208.210938 75.507812 207.558594 74.203125 Z M 158.496094 76.929688 C 158.96875 76.988281 158.851562 76.515625 158.910156 76.21875 C 160.035156 73.375 161.457031 70.707031 163.589844 68.457031 C 165.902344 66.027344 168.746094 64.425781 171.472656 62.53125 C 171.769531 62.292969 172.242188 62.175781 172.125 61.699219 C 172.003906 61.226562 171.53125 61.34375 171.234375 61.40625 C 170.050781 61.640625 168.863281 61.761719 167.796875 62.410156 C 165.722656 63.65625 164.007812 65.195312 162.582031 67.210938 C 161.101562 69.34375 159.859375 71.597656 158.792969 73.964844 C 158.496094 74.617188 158.257812 75.328125 158.199219 76.097656 C 158.316406 76.394531 158.019531 76.871094 158.496094 76.929688 Z M 203.648438 74.382812 C 203.410156 73.550781 202.996094 72.898438 202.222656 72.425781 C 202.046875 72.308594 201.808594 72.1875 201.632812 72.308594 C 201.394531 72.425781 201.453125 72.664062 201.511719 72.898438 C 201.808594 74.203125 202.285156 75.386719 202.996094 76.515625 C 203.171875 76.808594 203.410156 76.871094 203.707031 76.75 C 204.003906 76.632812 204.003906 76.394531 204.003906 75.980469 C 203.941406 75.566406 203.824219 74.972656 203.648438 74.382812 Z M 168.507812 68.75 C 168.6875 68.160156 168.449219 67.863281 167.859375 67.804688 C 167.027344 67.746094 165.429688 69.167969 165.367188 69.996094 C 165.308594 70.46875 165.546875 70.707031 165.960938 70.765625 C 166.671875 70.648438 168.332031 69.34375 168.507812 68.75 Z M 205.425781 83.386719 C 204.296875 83.507812 204.714844 84.511719 204.773438 85.164062 C 204.832031 85.816406 204.832031 86.707031 205.71875 86.707031 C 206.609375 86.644531 206.371094 85.699219 206.492188 85.046875 C 206.371094 84.277344 206.550781 83.269531 205.425781 83.386719 Z M 306.925781 266.777344 C 312.257812 266.539062 316.582031 263.933594 320.433594 260.496094 C 320.613281 260.316406 320.851562 260.140625 320.671875 259.84375 C 320.433594 259.488281 320.199219 259.785156 320.019531 259.902344 C 318.359375 261.089844 316.464844 261.742188 314.570312 262.511719 C 307.8125 265.355469 301 265.828125 294.066406 262.984375 C 293.59375 262.808594 293.121094 262.6875 292.644531 262.511719 C 292.347656 262.390625 292.050781 262.332031 291.875 262.628906 C 291.636719 263.042969 292.050781 263.164062 292.289062 263.398438 C 292.40625 263.457031 292.527344 263.578125 292.644531 263.636719 C 296.613281 265.828125 300.820312 267.015625 305.382812 266.777344 C 305.917969 266.835938 306.390625 266.777344 306.925781 266.777344 Z M 326.242188 255.105469 C 326.125 254.628906 325.769531 254.394531 325.351562 254.6875 C 324.347656 255.339844 323.457031 256.050781 323.101562 257.238281 C 322.921875 257.828125 323.21875 258.007812 323.695312 258.066406 C 324.820312 258.066406 326.480469 256.050781 326.242188 255.105469 Z M 317.945312 257.472656 C 318.066406 257.355469 318.125 257.179688 317.945312 257 C 317.710938 256.820312 317.589844 257.058594 317.414062 257.179688 C 315.871094 258.183594 314.214844 258.957031 312.613281 259.84375 C 312.375 259.960938 311.960938 259.902344 312.019531 260.316406 C 312.082031 260.671875 312.496094 260.496094 312.96875 260.613281 C 314.6875 259.960938 316.40625 258.894531 317.945312 257.472656 Z M 124.070312 100.394531 C 123.476562 100.394531 122.882812 100.394531 122.230469 100.394531 C 121.996094 100.394531 121.816406 100.453125 121.582031 100.511719 C 115.597656 102.050781 111.210938 105.726562 107.714844 110.644531 C 107.476562 110.941406 107.359375 111.355469 107.242188 111.710938 C 107.183594 111.886719 107.121094 112.183594 107.359375 112.304688 C 107.65625 112.480469 107.773438 112.242188 107.953125 112.007812 C 108.839844 110.464844 110.144531 109.28125 111.507812 108.214844 C 114.824219 105.546875 118.203125 103.058594 122.527344 102.347656 C 123.65625 102.171875 124.722656 101.875 125.847656 101.578125 C 126.203125 101.519531 126.734375 101.460938 126.617188 100.925781 C 126.558594 100.453125 126.082031 100.394531 125.726562 100.394531 C 125.195312 100.394531 124.660156 100.394531 124.070312 100.394531 Z M 129.933594 101.339844 C 129.757812 101.992188 130.351562 102.171875 130.824219 102.347656 C 131.417969 102.585938 132.070312 102.761719 132.78125 102.761719 C 133.136719 102.761719 133.429688 102.703125 133.550781 102.347656 C 133.667969 101.933594 133.550781 101.636719 133.195312 101.460938 C 132.601562 101.105469 131.949219 100.867188 131.179688 100.867188 C 130.644531 100.867188 130.054688 100.75 129.933594 101.339844 Z M 240.621094 280.226562 C 240.738281 279.574219 240.207031 279.398438 239.730469 279.277344 C 239.019531 279.042969 238.308594 278.863281 237.597656 278.6875 C 233.273438 277.621094 229.242188 275.84375 226.164062 272.464844 C 225.867188 272.167969 225.511719 271.933594 225.15625 271.695312 C 224.800781 271.515625 224.386719 271.457031 224.089844 271.871094 C 223.851562 272.226562 223.96875 272.523438 224.207031 272.878906 C 225.214844 274.300781 226.28125 275.664062 227.644531 276.789062 C 231.082031 279.8125 235.230469 280.40625 239.792969 280.640625 C 239.851562 280.523438 240.503906 280.820312 240.621094 280.226562 Z M 257.152344 275.722656 C 257.269531 275.605469 257.332031 275.429688 257.390625 275.25 C 257.449219 274.953125 257.449219 274.65625 257.210938 274.480469 C 256.914062 274.300781 256.679688 274.359375 256.441406 274.539062 C 255.078125 275.785156 253.359375 276.554688 251.761719 277.441406 C 251.40625 277.679688 250.988281 277.917969 251.109375 278.390625 C 251.226562 278.921875 251.699219 278.984375 252.414062 279.042969 C 254.25 278.628906 255.789062 277.324219 257.152344 275.722656 Z M 239.199219 277.324219 C 239.375 277.027344 239.199219 276.730469 238.902344 276.613281 C 237.65625 276.199219 236.710938 275.308594 235.585938 274.777344 C 235.109375 274.539062 234.578125 274.539062 234.28125 275.070312 C 233.984375 275.546875 234.222656 276.019531 234.636719 276.316406 C 235.703125 277.085938 236.886719 277.621094 238.132812 277.796875 C 238.605469 277.796875 238.960938 277.738281 239.199219 277.324219 Z M 239.199219 277.324219 " fill-opacity="1" fill-rule="nonzero"/></svg>