<svg width="600" height="400" viewBox="0 0 600 400" fill="none" xmlns="http://www.w3.org/2000/svg">
  <rect width="600" height="400" fill="white" fill-opacity="0"/>
  
  <!-- Skin with measurement points -->
  <rect x="150" y="100" width="300" height="200" rx="20" fill="#f9a8d4" opacity="0.7"/>
  
  <!-- Measurement points -->
  <circle cx="200" cy="150" r="15" fill="#6d28d9" stroke="white" stroke-width="2"/>
  <circle cx="250" cy="200" r="15" fill="#6d28d9" stroke="white" stroke-width="2"/>
  <circle cx="300" cy="150" r="15" fill="#6d28d9" stroke="white" stroke-width="2"/>
  <circle cx="350" cy="230" r="15" fill="#6d28d9" stroke="white" stroke-width="2"/>
  <circle cx="400" cy="180" r="15" fill="#6d28d9" stroke="white" stroke-width="2"/>
  
  <!-- Data points -->
  <line x1="200" y1="150" x2="150" y2="80" stroke="#8b5cf6" stroke-width="2"/>
  <rect x="90" y="50" width="120" height="30" rx="5" fill="#f3f4f6" stroke="#8b5cf6" stroke-width="2"/>
  <text x="150" y="70" text-anchor="middle" font-family="Arial" font-size="12" fill="#4c1d95">pH: 5.5</text>
  
  <line x1="250" y1="200" x2="200" y2="280" stroke="#8b5cf6" stroke-width="2"/>
  <rect x="140" y="280" width="120" height="30" rx="5" fill="#f3f4f6" stroke="#8b5cf6" stroke-width="2"/>
  <text x="200" y="300" text-anchor="middle" font-family="Arial" font-size="12" fill="#4c1d95">Oil: Medium</text>
  
  <line x1="350" y1="230" x2="450" y2="280" stroke="#8b5cf6" stroke-width="2"/>
  <rect x="390" y="280" width="120" height="30" rx="5" fill="#f3f4f6" stroke="#8b5cf6" stroke-width="2"/>
  <text x="450" y="300" text-anchor="middle" font-family="Arial" font-size="12" fill="#4c1d95">Temp: 32°C</text>
  
  <line x1="400" y1="180" x2="500" y2="120" stroke="#8b5cf6" stroke-width="2"/>
  <rect x="440" y="90" width="120" height="30" rx="5" fill="#f3f4f6" stroke="#8b5cf6" stroke-width="2"/>
  <text x="500" y="110" text-anchor="middle" font-family="Arial" font-size="12" fill="#4c1d95">Type: Combination</text>
</svg> 