<svg width="320" height="280" xmlns="http://www.w3.org/2000/svg">
  <style>
    .label { font-size: 14px; fill: #9ca3af; font-family: sans-serif; }
    .note-name { font-size: 14px; fill: white; font-family: sans-serif; }
    .bar-bg { fill: rgba(55, 65, 81, 0.5); }
    .bar-citrus { fill: #facc15; }
    .bar-floral { fill: #f472b6; }
    .bar-musk { fill: #c084fc; }
    .bar-hydration { fill: #60a5fa; }
    .bar-ph { fill: #34d399; }
    .bar-sebum { fill: #ff7f50; }
  </style>

  <!-- Biomarkers Title -->
  <text x="0" y="20" class="label">Skin Chemistry</text>

  <!-- Hydration -->
  <text x="0" y="50" class="note-name">Hydration</text>
  <rect x="95" y="40" width="205" height="10" class="bar-bg" rx="5" />
  <rect x="95" y="40" width="174" height="10" class="bar-hydration" rx="5" /> <!-- 85% -->

  <!-- pH Level -->
  <text x="0" y="85" class="note-name">pH Level</text>
  <rect x="95" y="75" width="205" height="10" class="bar-bg" rx="5" />
  <rect x="95" y="75" width="112.75" height="10" class="bar-ph" rx="5" /> <!-- 55% -->

  <!-- Sebum -->
  <text x="0" y="120" class="note-name">Sebum</text>
  <rect x="95" y="110" width="205" height="10" class="bar-bg" rx="5" />
  <rect x="95" y="110" width="82" height="10" class="bar-sebum" rx="5" /> <!-- 40% -->

  <!-- Divider -->
  <line x1="0" y1="150" x2="310" y2="150" stroke="#4b5563" stroke-dasharray="2,2" />

  <!-- Scent Profile Title -->
  <text x="0" y="175" class="label">Scent Profile</text>

  <!-- Citrus (from Hydration) -->
  <text x="0" y="205" class="note-name">Citrus</text>
  <rect x="95" y="195" width="205" height="10" class="bar-bg" rx="5" />
  <rect x="95" y="195" width="174" height="10" class="bar-citrus" rx="5" /> <!-- 85% -->

  <!-- Floral (from pH) -->
  <text x="0" y="240" class="note-name">Floral</text>
  <rect x="95" y="230" width="205" height="10" class="bar-bg" rx="5" />
  <rect x="95" y="230" width="112.75" height="10" class="bar-floral" rx="5" /> <!-- 55% -->

  <!-- Musk (from Sebum) -->
  <text x="0" y="275" class="note-name">Musk</text>
  <rect x="95" y="265" width="205" height="10" class="bar-bg" rx="5" />
  <rect x="95" y="265" width="82" height="10" class="bar-musk" rx="5" /> <!-- 40% -->
</svg>
