<?xml version="1.0" encoding="UTF-8"?>
<svg version="1.1" xmlns="http://www.w3.org/2000/svg" width="512" height="512">
<path d="M0 0 C1.10794922 -0.09474609 1.10794922 -0.09474609 2.23828125 -0.19140625 C9.15364253 1.93724563 13.02738161 11.1467948 16.4375 17 C17.23414063 18.30203369 17.23414063 18.30203369 18.046875 19.63037109 C20.57714739 23.78844192 22.88041059 27.83736353 24.703125 32.35546875 C26.66145165 36.85161679 28.4728499 40.81812371 32.6875 43.5625 C40.66136547 45.78317285 49.10192623 45.40485343 57.31396484 45.45654297 C61.85448053 45.59915288 66.09422405 46.30799151 70.5 47.375 C71.2022168 47.54394775 71.90443359 47.71289551 72.62792969 47.88696289 C78.67481464 49.43159429 84.58164359 51.40450931 90.453125 53.51171875 C93.53906622 54.51427695 96.47821332 55.12000744 99.6875 55.5625 C100.03941406 55.06959473 100.39132812 54.57668945 100.75390625 54.06884766 C120.89871437 25.89635979 120.89871437 25.89635979 124.67578125 25.19140625 C128.74088427 25.07526045 130.96290472 25.02767967 134.3125 27.5 C135.488125 29.0159375 135.488125 29.0159375 136.6875 30.5625 C137.25339844 31.27535156 137.81929687 31.98820312 138.40234375 32.72265625 C139.5945195 34.23240947 140.77515266 35.75138386 141.94140625 37.28125 C142.51761719 38.0340625 143.09382812 38.786875 143.6875 39.5625 C144.60402344 40.78839844 144.60402344 40.78839844 145.5390625 42.0390625 C155.39946891 53.62055803 169.76876199 59.60540398 183.734375 64.640625 C185.92292464 65.67362043 187.16556908 66.68652473 188.6875 68.5625 C189.90492734 72.78291479 190.0776929 74.78781044 188.08203125 78.75 C185.44560943 83.11030282 182.44764321 87.20565151 179.4375 91.3125 C178.86700928 92.10237305 178.29651855 92.89224609 177.70874023 93.70605469 C175.19555832 97.17814384 172.6692217 100.62394792 169.98828125 103.96875 C169.24964844 104.9071875 168.51101563 105.845625 167.75 106.8125 C167.10160156 107.60140625 166.45320313 108.3903125 165.78515625 109.203125 C164.40281191 111.57141255 164.40281191 111.57141255 165.234375 114.38671875 C166.60190613 117.37543597 168.08441555 120.21331498 169.70849609 123.06713867 C188.04374325 155.41284782 191.84024063 195.91144968 182.36328125 231.6328125 C179.65921773 241.37506082 176.34017837 250.56185267 171.6875 259.5625 C171.16542969 260.614375 170.64335937 261.66625 170.10546875 262.75 C162.9403188 276.71113527 153.60980088 288.38639706 142.6875 299.5625 C141.86415161 300.41871948 141.86415161 300.41871948 141.02416992 301.29223633 C116.45030538 326.47192804 80.00278499 341.41101634 44.96563721 341.92805481 C42.89357915 341.94312122 40.8221007 341.94343287 38.75 341.9375 C38.03061249 341.93695618 37.31122498 341.93641235 36.57003784 341.93585205 C-3.49400011 341.79735443 -39.93411129 325.85395673 -68.5 297.8125 C-75.27258408 290.97056886 -81.01721202 283.59045265 -86.3125 275.5625 C-86.74546387 274.90942871 -87.17842773 274.25635742 -87.62451172 273.58349609 C-107.76373485 242.67230505 -115.777943 202.1509193 -108.78637695 165.78881836 C-108.33445478 163.70167423 -107.83423817 161.63325258 -107.3125 159.5625 C-107.12445801 158.7900293 -106.93641602 158.01755859 -106.74267578 157.22167969 C-102.47454874 140.19670834 -94.93433344 124.77709649 -86.3125 109.5625 C-86.73547363 108.88783691 -87.15844727 108.21317383 -87.59423828 107.51806641 C-89.54297547 104.4084926 -91.4902453 101.29800236 -93.4375 98.1875 C-94.10265625 97.12660156 -94.7678125 96.06570313 -95.453125 94.97265625 C-96.77687194 92.85725673 -98.09648482 90.73926439 -99.41186523 88.61865234 C-100.64095063 86.64232723 -101.88190125 84.67331058 -103.13696289 82.71337891 C-103.68344482 81.84374512 -104.22992676 80.97411133 -104.79296875 80.078125 C-105.51842896 78.94165527 -105.51842896 78.94165527 -106.25854492 77.78222656 C-107.75611025 74.62821592 -107.664448 71.97925098 -107.23046875 68.5703125 C-105.80963069 65.46260712 -104.2327717 64.36389365 -101.3125 62.5625 C-97.98644909 61.53298125 -94.60470642 60.90217466 -91.1875 60.25 C-59.78268307 53.64544188 -30.28520368 37.97127242 -12.30078125 10.48828125 C-11.12124963 8.5965796 -9.95878011 6.69403921 -8.8203125 4.77734375 C-6.42960691 1.26560782 -4.10104168 0.21957218 0 0 Z " fill="#25C6DA" transform="translate(218.3125,170.4375)"/>
<path d="M0 0 C0.66080566 0.19335938 1.32161133 0.38671875 2.00244141 0.5859375 C31.91143374 9.55240848 55.70541448 29.70175486 70.89086914 56.85229492 C83.30646929 80.04557511 84.48082204 108.02407436 77 133 C68.41868203 161.1505942 49.64546652 184.75440529 23.6875 198.75 C-0.27833237 211.26742525 -30.01939717 214.73742195 -56.05175781 206.64160156 C-73.04468289 201.04543526 -86.82905457 193.00666296 -100 181 C-100.66515625 180.41734375 -101.3303125 179.8346875 -102.015625 179.234375 C-119.01640938 163.5046773 -130.68852243 137.61570922 -132.22119141 114.69165039 C-133.26153083 83.16936585 -126.82514425 58.05177318 -107 33 C-106.49726562 32.34128906 -105.99453125 31.68257812 -105.4765625 31.00390625 C-101.07700411 25.49810051 -95.550961 21.28937895 -90 17 C-88.84371094 16.08541016 -88.84371094 16.08541016 -87.6640625 15.15234375 C-63.48299145 -2.96282722 -28.85558715 -8.60776837 0 0 Z " fill="#25C6DA" transform="translate(132,3)"/>
<path d="M0 0 C14.95777671 12.29799857 27.02424394 30.22842006 29.43554688 49.78808594 C31.30006759 74.51236498 26.9861095 95.3701297 10.97070312 114.88183594 C-2.05021966 129.80874896 -20.59538918 139.74743706 -40.40429688 141.65917969 C-64.04568423 143.06996772 -84.41280582 136.42231575 -102.81445312 121.53808594 C-117.61409969 107.72085702 -126.8463315 88.44666409 -127.94335938 68.22558594 C-128.71151739 43.57711124 -121.10735012 23.31328735 -104.19335938 5.25683594 C-76.14537686 -21.63975156 -30.68895468 -23.77340372 0 0 Z " fill="#25C6DA" transform="translate(482.564453125,78.2119140625)"/>
</svg>
