<svg width="135" height="40" viewBox="0 0 135 40" fill="none" xmlns="http://www.w3.org/2000/svg">
  <rect width="135" height="40" rx="6" fill="#000"/>
  <path d="M23.6328 19.8828C23.6536 17.5182 25.4121 16.0677 27.4238 15.9828C25.4849 14.8281 24.0514 16.0469 23.5028 16.0469C22.9333 16.0469 21.6992 15.9828 20.7917 15.9828C19.8008 15.9828 18.9138 16.5495 18.4493 17.3724C17.4545 19.0443 18.0863 21.789 20.0357 23.9297C20.9851 25.0219 22.0837 26.1562 23.5028 26.0937C24.8408 26.0312 25.4104 25.3125 27.0983 25.3125C28.7653 25.3125 29.2922 26.0937 30.6927 26.0937C32.1118 26.0937 33.082 24.8333 33.9689 23.7617C34.9844 22.4583 35.3866 21.1973 35.3866 21.1348C35.3658 21.1139 32.5555 20.0422 32.5555 16.7448C32.5555 13.9375 34.8175 12.7826 34.9012 12.7201C33.5007 10.7917 31.4267 10.7083 30.6927 10.7083C28.7861 10.6458 27.1399 11.875 26.137 11.875C25.0593 11.875 23.6328 10.7083 21.9451 10.7083C18.6156 10.7083 16.8571 13.25 16.8571 15.6719C16.8363 20.3177 19.8841 24.9792 23.6328 24.9792C24.5822 24.9792 25.6184 24.25 26.3733 24.25C27.0776 24.25 28.3326 25 29.5668 25C29.5668 25 29.5668 25 29.5668 24.9792C29.3583 22.75 23.6328 21.4258 23.6328 19.8828Z" fill="white"/>
  <path d="M26.765 8.75C27.569 7.71875 28.1176 6.32292 27.9507 5C26.6959 5.04167 25.1726 5.86458 24.3269 6.89583C23.5645 7.8125 22.9117 9.25 23.0994 10.5C24.5184 10.5833 25.961 9.78125 26.765 8.75Z" fill="white"/>
  <path d="M46.8779 24.6875H44.4473L43.1301 21.1042H38.9228L37.6681 24.6875H35.3203L39.4859 13.0938H42.6087L46.8779 24.6875ZM42.6712 19.3646L41.4997 16.1458C41.3954 15.8542 41.192 15.1458 40.8895 14.0417H40.8478C40.7226 14.5417 40.5297 15.25 40.268 16.1458L39.1174 19.3646H42.6712Z" fill="white"/>
  <path d="M58.3307 20.4583C58.3307 21.9167 57.8446 23.0833 56.8725 23.9792C55.9942 24.7708 54.8853 25.1667 53.5473 25.1667C52.0969 25.1667 51.0296 24.75 50.3457 23.9167L50.2622 24.6875H48.2347V12.5H50.3247V16.6667L50.2622 17.6458C50.9461 16.8542 51.976 16.4583 53.3547 16.4583C54.7125 16.4583 55.8317 16.8542 56.7099 17.6458C57.7878 18.5833 58.3307 19.8333 58.3307 20.4583ZM56.2134 20.8542C56.2134 20.0417 55.9109 19.3333 55.3058 18.8125C54.7007 18.2708 53.9333 18 53.0029 18C52.3608 18 51.8122 18.1667 51.3574 18.4792C50.9026 18.7917 50.5792 19.1875 50.3875 19.6667C50.1957 20.1458 50.1039 20.625 50.1039 21.0417V21.6042C50.1039 22.2292 50.3456 22.7708 50.8317 23.25C51.3177 23.7292 51.976 23.9583 52.8125 23.9583C53.7632 23.9583 54.5202 23.6875 55.0835 23.1458C55.647 22.6042 56.2134 21.875 56.2134 20.8542Z" fill="white"/>
  <path d="M70.0376 20.4583C70.0376 21.9167 69.5515 23.0833 68.5794 23.9792C67.7012 24.7708 66.5924 25.1667 65.2542 25.1667C63.8039 25.1667 62.7367 24.75 62.0527 23.9167L61.9693 24.6875H59.9418V12.5H62.0318V16.6667L61.9693 17.6458C62.6532 16.8542 63.6831 16.4583 65.0618 16.4583C66.4196 16.4583 67.5388 16.8542 68.417 17.6458C69.4949 18.5833 70.0376 19.8333 70.0376 20.4583ZM67.9203 20.8542C67.9203 20.0417 67.6179 19.3333 67.0127 18.8125C66.4076 18.2708 65.6402 18 64.7099 18C64.0678 18 63.5192 18.1667 63.0644 18.4792C62.6095 18.7917 62.2861 19.1875 62.0944 19.6667C61.9026 20.1458 61.8109 20.625 61.8109 21.0417V21.6042C61.8109 22.2292 62.0526 22.7708 62.5386 23.25C63.0247 23.7292 63.6829 23.9583 64.5194 23.9583C65.47 23.9583 66.2271 23.6875 66.7905 23.1458C67.3538 22.6042 67.9203 21.875 67.9203 20.8542Z" fill="white"/>
  <path d="M81.1875 21.1875C81.1875 22.3125 80.8019 23.2292 80.0349 23.9375C79.2674 24.6458 78.2667 25 77.0327 25C75.9029 25 75.0039 24.7083 74.3408 24.125L74.2573 24.6875H72.2297V12.5H74.3201V16.5833L74.2782 17.5C74.9412 16.8125 75.7712 16.4583 76.7642 16.4583C78.0399 16.4583 79.0721 16.8125 79.8606 17.5208C80.7388 18.3125 81.1875 19.3542 81.1875 21.1875ZM79.0513 21.0625C79.0513 20.0625 78.7908 19.2917 78.2671 18.75C77.7436 18.2083 77.0326 17.9375 76.134 17.9375C75.5496 17.9375 75.0531 18.0833 74.6398 18.375C74.227 18.6667 73.9245 19.0417 73.7328 19.5208C73.541 20 73.4492 20.4792 73.4492 20.9792V21.3125C73.4492 22.0625 73.6932 22.6875 74.1793 23.1875C74.6652 23.6875 75.3076 23.9375 76.1028 23.9375C76.9811 23.9375 77.6756 23.6667 78.1825 23.125C78.7666 22.5 79.0513 21.8333 79.0513 21.0625Z" fill="white"/>
  <path d="M89.7256 25.1667C88.1729 25.1667 86.9285 24.7083 85.9982 23.7917C85.068 22.8542 84.6028 21.6667 84.6028 20.2083C84.6028 18.7083 85.0366 17.5208 85.9042 16.625C86.7719 15.7292 87.9223 15.2917 89.3428 15.2917C90.6811 15.2917 91.7483 15.6667 92.5425 16.4167C93.3374 17.1667 93.7349 18.1667 93.7349 19.4167H86.804C86.8457 20.3333 87.1377 21.0417 87.6862 21.5417C88.2347 22.0417 88.9292 22.2917 89.7674 22.2917C90.9597 22.2917 91.9631 21.8333 92.7782 20.9167L93.6147 22.1042C93.1912 22.6042 92.6072 23 91.8645 23.2917C91.121 23.875 90.5166 25.1667 89.7256 25.1667ZM91.6305 18.1667C91.5679 17.3958 91.3031 16.7917 90.8379 16.3333C90.3727 15.875 89.7464 15.6458 88.9515 15.6458C88.24 15.6458 87.656 15.875 87.1908 16.3333C86.7255 16.7917 86.4543 17.3958 86.3709 18.1667H91.6305Z" fill="white"/>
  <path d="M101.508 16.6875L100.036 16.8958C99.4308 16.9583 98.9551 17.1458 98.6109 17.4583C98.2661 17.7708 98.0326 18.1875 97.9068 18.7083C97.7817 19.2292 97.7192 19.8125 97.7192 20.4583V24.6875H95.6288V16.6042H97.5414L97.6458 18.0625H97.6876C97.9274 17.5625 98.2616 17.1458 98.6935 16.8125C99.1254 16.4792 99.632 16.3125 100.203 16.3125C100.432 16.3125 100.64 16.3333 100.799 16.3542C100.961 16.375 101.205 16.4167 101.509 16.4792V16.6875H101.508Z" fill="white"/>
  <path d="M111.066 24.6875H108.975V19.625C108.975 18.9583 108.815 18.4583 108.495 18.1042C108.174 17.75 107.709 17.5833 107.078 17.5833C106.112 17.5833 105.384 17.8958 104.897 18.5208C104.411 19.1458 104.164 20.0417 104.164 21.2083V24.6875H102.074V16.6042H103.986L104.102 17.8125H104.164C104.454 17.3333 104.857 16.9583 105.363 16.6667C105.871 16.375 106.462 16.2292 107.142 16.2292C108.291 16.2292 109.152 16.5208 109.742 17.1042C110.332 17.6875 111.066 18.5833 111.066 19.7917V24.6875Z" fill="white"/>
  <path d="M118.84 24.6875L118.715 23.3333H118.672C118.32 23.8542 117.896 24.2292 117.39 24.4583C116.885 24.6875 116.264 24.7917 115.521 24.7917C114.495 24.7917 113.702 24.5417 113.145 24.0417C112.589 23.5417 112.31 22.8125 112.31 21.875C112.31 19.9375 113.757 18.9375 116.65 18.8958L118.671 18.8542V18.2292C118.671 17.5833 118.516 17.0833 118.196 16.75C117.876 16.4167 117.385 16.25 116.724 16.25C116.281 16.25 115.853 16.3125 115.441 16.4583C115.029 16.6042 114.635 16.7708 114.262 16.9583L113.694 15.7917C114.153 15.5417 114.67 15.3333 115.247 15.1667C115.823 15 116.401 14.9167 116.978 14.9167C118.234 14.9167 119.175 15.2083 119.81 15.7917C120.444 16.375 120.76 17.2917 120.76 18.5417V24.6875H118.84ZM116.035 23.3958C116.804 23.3958 117.419 23.1667 117.886 22.7083C118.355 22.25 118.631 21.625 118.631 20.8333V20.0833L116.945 20.125C115.657 20.1458 114.797 20.3125 114.371 20.6667C113.943 21 113.728 21.5 113.728 22.1667C113.728 22.6875 113.883 23.0833 114.203 23.3542C114.524 23.625 115.203 23.3958 116.035 23.3958Z" fill="white"/>
  <path d="M130.068 24.6875H128V18.4167C128 17.8958 127.874 17.4792 127.617 17.1667C127.361 16.8542 126.957 16.6875 126.408 16.6875C125.654 16.6875 125.096 16.9583 124.733 17.5C124.371 18.0417 124.192 18.9583 124.192 20.25V24.6875H122.101V12.5H124.192V15.9375L124.151 17.25H124.192C124.483 16.7292 124.881 16.3333 125.389 16.0833C125.897 15.8333 126.454 15.7083 127.071 15.7083C128.887 15.7083 130.068 16.8958 130.068 18.5417V24.6875Z" fill="white"/>
</svg> 