<svg width="135" height="40" viewBox="0 0 135 40" fill="none" xmlns="http://www.w3.org/2000/svg">
  <rect width="135" height="40" rx="6" fill="#000"/>
  <path d="M47.3003 10.24H43.6797V25.7044H47.3003V10.24Z" fill="white"/>
  <path d="M59.0038 17.9022L54.9594 25.7044H53.4836L49.4376 17.9022H51.744L54.2215 23.295L56.6974 17.9022H59.0038Z" fill="white"/>
  <path d="M60.2788 13.3044C60.2788 13.7244 60.1252 14.0777 59.8179 14.3644C59.5107 14.651 59.1361 14.7944 58.6941 14.7944C58.2545 14.7944 57.8799 14.651 57.5726 14.3644C57.2654 14.0777 57.1118 13.7244 57.1118 13.3044C57.1118 12.8844 57.2654 12.531 57.5726 12.2444C57.8799 11.9577 58.2545 11.8144 58.6941 11.8144C59.1361 11.8144 59.5107 11.9577 59.8179 12.2444C60.1252 12.531 60.2788 12.8844 60.2788 13.3044ZM60.0365 17.9022V25.7044H57.3526V17.9022H60.0365Z" fill="white"/>
  <path d="M68.3254 25.7044H65.6415V21.051C65.6415 20.5577 65.552 20.1844 65.3731 19.931C65.1942 19.6777 64.9082 19.551 64.5151 19.551C64.019 19.551 63.617 19.7477 63.3098 20.141C63.0025 20.5344 62.8489 21.0644 62.8489 21.731V25.7044H60.165V17.9022H62.5939L62.729 18.8876H62.8489C63.0811 18.5322 63.387 18.2444 63.7664 18.0244C64.1458 17.8044 64.6025 17.6944 65.1367 17.6944C65.9563 17.6944 66.6018 17.9366 67.0733 18.421C67.5747 18.9122 67.8254 19.641 67.8254 20.6077V25.7044H68.3254Z" fill="white"/>
  <path d="M70.9595 21.7044C70.9595 22.1944 71.0489 22.6077 71.2279 22.9444C71.4068 23.281 71.6558 23.5377 71.975 23.7144C72.2941 23.891 72.6734 23.9794 73.113 23.9794C73.7109 23.9794 74.1691 23.8094 74.4876 23.4694C74.8061 23.1294 74.9654 22.661 74.9654 22.0644V21.6444C74.7332 21.5077 74.3918 21.3955 73.9412 21.3077C73.4907 21.22 73.0938 21.1762 72.7507 21.1762C72.216 21.1762 71.8086 21.2988 71.5286 21.544C71.2492 21.7892 71.1092 22.161 71.1092 22.6594C71.1092 23.291 71.0489 22.051 70.9595 21.7044ZM77.6193 25.7044H75.2303L75.0845 24.9378H74.9645C74.6926 25.291 74.3611 25.5455 73.9701 25.7011C73.5791 25.8566 73.1323 25.9345 72.6295 25.9345C71.7693 25.9345 71.0893 25.6722 70.5894 25.1477C70.0896 24.6233 69.8397 23.9177 69.8397 23.031C69.8397 22.0755 70.1563 21.3722 70.7896 20.921C71.4229 20.4699 72.3795 20.2188 73.6592 20.1677L74.8383 20.1244V19.931C74.8383 19.481 74.7215 19.1599 74.4876 18.9677C74.2538 18.7755 73.9346 18.6794 73.5301 18.6794C73.18 18.6794 72.8245 18.7366 72.4635 18.851C72.1025 18.9655 71.7525 19.1055 71.4133 19.271L70.7096 17.9344C71.1634 17.7 71.6746 17.5211 72.243 17.3977C72.8114 17.2744 73.3409 17.2127 73.8317 17.2127C74.9783 17.2127 75.8384 17.4777 76.4119 18.0077C76.9855 18.5377 77.2722 19.3144 77.2722 20.3377V25.7044H77.6193Z" fill="white"/>
  <path d="M89.7617 25.7044H87.0778V21.051C87.0778 20.5577 86.9883 20.1844 86.8094 19.931C86.6304 19.6777 86.3445 19.551 85.9514 19.551C85.4552 19.551 85.0532 19.7477 84.746 20.141C84.4388 20.5344 84.2851 21.0644 84.2851 21.731V25.7044H81.6013V17.9022H84.0301L84.1653 18.8876H84.2851C84.5174 18.5322 84.8232 18.2444 85.2026 18.0244C85.582 17.8044 86.0388 17.6944 86.573 17.6944C87.3926 17.6944 88.038 17.9366 88.5095 18.421C89.011 18.9122 89.2617 19.641 89.2617 20.6077V25.7044H89.7617Z" fill="white"/>
  <path d="M96.6944 17.7044C96.1609 17.7044 95.697 17.8522 95.3027 18.1477C94.9085 18.4433 94.6538 18.8644 94.5386 19.411H98.8478C98.8305 18.8644 98.6626 18.4433 98.3438 18.1477C98.025 17.8522 97.612 17.7044 97.1049 17.7044H96.6944ZM102.049 25.7044H99.5007L99.0814 24.5777H98.9615C98.6773 25.0122 98.307 25.3388 97.8511 25.5577C97.3952 25.7766 96.8552 25.886 96.2315 25.886C95.2827 25.886 94.5444 25.6088 94.0165 25.0544C93.4885 24.5 93.2246 23.7288 93.2246 22.741C93.2246 21.701 93.5692 20.9233 94.2584 20.4077C94.9477 19.8922 95.9658 19.6077 97.3126 19.5544L98.7316 19.501V19.1677C98.7316 18.2188 98.2073 17.7443 97.1589 17.7443C96.3594 17.7443 95.6233 17.961 94.9509 18.3944L93.8503 16.5677C94.7794 15.991 95.9082 15.7027 97.2369 15.7027C98.5309 15.7027 99.5398 16.0044 100.263 16.6077C100.988 17.211 101.35 18.0777 101.35 19.2077V25.7044H102.049ZM97.9662 23.9794C98.4171 23.9794 98.8019 23.8427 99.1208 23.5694C99.4397 23.296 99.5991 22.9177 99.5991 22.4344V21.121L98.7316 21.1644C98.0886 21.1899 97.6118 21.3222 97.3011 21.5611C96.9904 21.8 96.8351 22.1444 96.8351 22.5944C96.8351 22.9155 96.9302 23.1677 97.1206 23.351C97.311 23.5344 97.5934 23.6261 97.968 23.6261L97.9662 23.9794Z" fill="white"/>
  <path d="M110.25 25.7044H107.63L107.503 24.841H107.384C107.035 25.2077 106.655 25.4788 106.243 25.6544C105.832 25.8299 105.345 25.9178 104.783 25.9178C103.899 25.9178 103.183 25.5922 102.633 24.941C102.084 24.2899 101.809 23.4144 101.809 22.3144C101.809 21.1755 102.118 20.2688 102.736 19.5944C103.353 18.92 104.13 18.5845 105.066 18.5845C105.517 18.5845 105.899 18.641 106.213 18.7544C106.527 18.8678 106.798 19.031 107.028 19.2444V15.2443H109.712V25.7044H110.25ZM106.094 23.6794C106.615 23.6794 107.013 23.5033 107.291 23.151C107.568 22.7988 107.707 22.321 107.707 21.7177V21.4844C107.707 20.9966 107.568 20.5911 107.291 20.2677C107.013 19.9444 106.645 19.7826 106.184 19.7826C105.663 19.7826 105.253 19.9744 104.952 20.3578C104.652 20.7411 104.501 21.2444 104.501 21.8677C104.501 22.4322 104.642 22.8788 104.923 23.2077C105.204 23.5366 105.592 23.7011 106.094 23.7011V23.6794Z" fill="white"/>
  <path d="M115.889 15.9178H112.268V13H115.889V15.9178Z" fill="white"/>
  <path d="M127.297 21.7044C127.297 22.1944 127.386 22.6077 127.565 22.9444C127.744 23.281 127.993 23.5377 128.312 23.7144C128.631 23.891 129.011 23.9794 129.45 23.9794C130.048 23.9794 130.506 23.8094 130.825 23.4694C131.143 23.1294 131.302 22.661 131.302 22.0644V21.6444C131.07 21.5077 130.729 21.3955 130.278 21.3077C129.828 21.22 129.431 21.1762 129.088 21.1762C128.553 21.1762 128.146 21.2988 127.866 21.544C127.586 21.7892 127.446 22.161 127.446 22.6594C127.446 23.291 127.386 22.051 127.297 21.7044ZM133.957 25.7044H131.568L131.422 24.9378H131.302C131.03 25.291 130.698 25.5455 130.307 25.7011C129.916 25.8566 129.469 25.9345 128.967 25.9345C128.107 25.9345 127.427 25.6722 126.927 25.1477C126.427 24.6233 126.177 23.9177 126.177 23.031C126.177 22.0755 126.494 21.3722 127.127 20.921C127.76 20.4699 128.717 20.2188 129.996 20.1677L131.175 20.1244V19.931C131.175 19.481 131.059 19.1599 130.825 18.9677C130.591 18.7755 130.272 18.6794 129.867 18.6794C129.517 18.6794 129.162 18.7366 128.801 18.851C128.44 18.9655 128.09 19.1055 127.75 19.271L127.047 17.9344C127.501 17.7 128.012 17.5211 128.58 17.3977C129.149 17.2744 129.678 17.2127 130.169 17.2127C131.316 17.2127 132.176 17.4777 132.749 18.0077C133.323 18.5377 133.609 19.3144 133.609 20.3377V25.7044H133.957Z" fill="white"/>
  <path d="M122.634 24.8743C122.316 25.202 121.909 25.3659 121.414 25.3659H121.143C120.648 25.3659 120.241 25.202 119.923 24.8743C119.605 24.5466 119.446 24.1345 119.446 23.6383V23.3682C119.446 22.872 119.605 22.4599 119.923 22.1323C120.241 21.8046 120.648 21.6407 121.143 21.6407H121.414C121.909 21.6407 122.316 21.8046 122.634 22.1323C122.952 22.4599 123.111 22.872 123.111 23.3682V23.6383C123.111 24.1345 122.952 24.5466 122.634 24.8743Z" fill="white"/>
  <path d="M115.889 25.7044H112.268V17.9022H115.889V25.7044Z" fill="white"/>
  <path d="M68.9927 28.1956H69.9094L71.9426 32.6956L73.9427 28.1956H74.8427L72.3428 33.5956H71.4594L68.9927 28.1956Z" fill="white"/>
  <path d="M74.2262 30.9289H76.9429V31.6289H74.2262V30.9289Z" fill="white"/>
  <path d="M78.1097 33.5956H77.2264V28.1956H78.1097V33.5956Z" fill="white"/>
  <path d="M83.1263 31.2956C83.1263 31.829 83.048 32.296 82.8913 32.6956C82.7346 33.0956 82.508 33.404 82.2113 33.6206C81.9146 33.8373 81.563 33.9456 81.1563 33.9456C80.743 33.9456 80.388 33.8356 80.0913 33.6156C79.7946 33.3956 79.5646 33.0873 79.4013 32.6906C79.238 32.294 79.1563 31.8306 79.1563 31.3006C79.1563 30.7673 79.238 30.304 79.4013 29.9106C79.5646 29.5173 79.7946 29.2106 80.0913 28.9906C80.3883 28.7706 80.743 28.6606 81.1563 28.6606C81.563 28.6606 81.9146 28.769 82.2113 28.9856C82.508 29.2023 82.7346 29.5106 82.8913 29.9106C83.048 30.3106 83.1263 30.7656 83.1263 31.2956ZM80.0594 31.2956C80.0594 31.6756 80.108 32.0056 80.2064 32.2856C80.3046 32.5656 80.453 32.7856 80.6497 32.9456C80.8463 33.1056 80.9846 33.1856 81.1563 33.1856C81.328 33.1856 81.468 33.1056 81.6647 32.9456C81.8613 32.7856 82.0097 32.5656 82.108 32.2856C82.2063 32.0056 82.2547 31.6756 82.2547 31.2956C82.2547 30.9156 82.2063 30.5906 82.108 30.3106C82.0097 30.0306 81.8613 29.8123 81.6647 29.6556C81.468 29.499 81.328 29.4206 81.1563 29.4206C80.9846 29.4206 80.8463 29.499 80.6497 29.6556C80.453 29.8123 80.3046 30.0306 80.2064 30.3106C80.108 30.5906 80.0594 30.9156 80.0594 31.2956Z" fill="white"/>
  <path d="M88.1431 33.5956H87.2764L86.683 32.1956H84.6431L84.0598 33.5956H83.2264L85.2064 28.1956H86.1231L88.1431 33.5956ZM86.443 31.5289L85.8264 30.0056C85.7698 29.8656 85.7014 29.6523 85.6231 29.3656C85.5448 29.0789 85.4964 28.8806 85.4764 28.7706C85.4564 28.8806 85.408 29.0789 85.3298 29.3656C85.2514 29.6523 85.183 29.8656 85.1264 30.0056L84.5064 31.5289H86.443Z" fill="white"/>
  <path d="M94.5765 33.5956H93.6931V29.589H91.6264V28.1956H96.6431V29.589H94.5765V33.5956Z" fill="white"/>
  <path d="M96.7597 33.5956H95.8764V28.1956H96.7597V33.5956Z" fill="white"/>
  <path d="M102.026 30.9289C102.026 31.196 101.944 31.4323 101.781 31.6373C101.618 31.8423 101.386 31.9889 101.083 32.0773C101.473 32.1523 101.771 32.304 101.978 32.5323C102.184 32.7606 102.288 33.0573 102.288 33.4223C102.288 33.9156 102.084 34.296 101.678 34.564C101.271 34.832 100.673 34.9656 99.8832 34.9656H97.8931V28.1956H99.7631C100.513 28.1956 101.074 28.3206 101.447 28.5706C101.833 28.8206 102.026 29.189 102.026 29.6756V30.9289ZM100.141 30.7223C100.141 30.484 100.068 30.3073 99.9232 30.1923C99.7782 30.0773 99.5648 30.0256 99.2831 30.0256H98.7764V31.444H99.1131C99.6431 31.444 99.9764 31.3656 100.113 31.209C100.133 31.1923 100.141 30.979 100.141 30.7223ZM101.101 33.3673C101.101 33.094 101.018 32.8973 100.853 32.7773C100.688 32.6573 100.428 32.5973 100.073 32.5973H98.7764V34.1623H100.073C100.428 34.1623 100.688 34.1023 100.853 33.9823C101.018 33.8623 101.101 33.6573 101.101 33.3673Z" fill="white"/>
  <path d="M108.17 31.654H109.037V33.3073C108.823 33.4173 108.577 33.5023 108.297 33.5623C108.018 33.6223 107.735 33.6523 107.449 33.6523C107.035 33.6523 106.68 33.544 106.383 33.3273C106.087 33.1106 105.86 32.804 105.703 32.4073C105.547 32.0106 105.468 31.549 105.468 31.024C105.468 30.494 105.552 30.0306 105.718 29.634C105.885 29.2373 106.125 28.929 106.438 28.709C106.75 28.489 107.115 28.379 107.532 28.379C107.872 28.379 108.175 28.434 108.438 28.544C108.702 28.654 108.91 28.809 109.064 29.009L108.468 29.6607C108.348 29.5073 108.213 29.389 108.063 29.304C107.913 29.219 107.747 29.1757 107.562 29.1757C107.282 29.1757 107.045 29.264 106.852 29.439C106.658 29.614 106.51 29.849 106.408 30.144C106.307 30.439 106.257 30.7673 106.257 31.129C106.257 31.504 106.303 31.8323 106.398 32.114C106.493 32.3956 106.632 32.614 106.817 32.7707C107.002 32.9273 107.225 33.0057 107.488 33.0057C107.662 33.0057 107.817 32.9773 107.953 32.9207C108.09 32.864 108.217 32.804 108.337 32.7407V31.654H108.17Z" fill="white"/>
  <path d="M114.352 33.5956H113.485L112.892 32.1956H110.852L110.269 33.5956H109.435L111.415 28.1956H112.332L114.352 33.5956ZM112.652 31.5289L112.035 30.0056C111.979 29.8656 111.91 29.6523 111.832 29.3656C111.754 29.0789 111.705 28.8806 111.685 28.7706C111.665 28.8806 111.617 29.0789 111.539 29.3656C111.46 29.6523 111.392 29.8656 111.335 30.0056L110.715 31.5289H112.652Z" fill="white"/>
  <path d="M119.552 33.5956H118.652L116.669 29.514H116.619C116.632 29.7073 116.644 29.914 116.655 30.134C116.665 30.354 116.674 30.5773 116.682 30.8056C116.689 31.034 116.693 31.249 116.693 31.4523V33.5956H115.902V28.1956H116.802L118.777 32.2523H118.819C118.805 32.0523 118.792 31.844 118.782 31.629C118.772 31.414 118.762 31.1956 118.755 30.974C118.749 30.7523 118.745 30.5373 118.745 30.329V28.1956H119.552V33.5956Z" fill="white"/>
  <path d="M125.236 33.5956H124.369L123.775 32.1956H121.736L121.152 33.5956H120.319L122.299 28.1956H123.215L125.236 33.5956ZM123.536 31.5289L122.919 30.0056C122.862 29.8656 122.794 29.6523 122.715 29.3656C122.637 29.0789 122.589 28.8806 122.569 28.7706C122.549 28.8806 122.5 29.0789 122.422 29.3656C122.344 29.6523 122.275 29.8656 122.219 30.0056L121.599 31.5289H123.536Z" fill="white"/>
  <path d="M38.0005 20H38C35.7909 20 34 18.2091 34 16C34 13.7909 35.7909 12 38 12H38.0005V20Z" fill="#EA4335"/>
  <path d="M38.0005 12H38C40.2091 12 42 13.7909 42 16C42 18.2091 40.2091 20 38 20H38.0005V12Z" fill="#FBBC04"/>
  <path d="M38.0005 20H38C35.7909 20 34 21.7909 34 24C34 26.2091 35.7909 28 38 28H38.0005V20Z" fill="#34A853"/>
  <path d="M38.0005 28H38C40.2091 28 42 26.2091 42 24C42 21.7909 40.2091 20 38 20H38.0005V28Z" fill="#4285F4"/>
</svg> 