<svg width="600" height="400" viewBox="0 0 600 400" fill="none" xmlns="http://www.w3.org/2000/svg">
  <rect width="600" height="400" fill="white" fill-opacity="0"/>
  
  <!-- Feedback loop circle -->
  <circle cx="300" cy="200" r="120" stroke="#8b5cf6" stroke-width="4" stroke-dasharray="15 10" fill="none"/>
  
  <!-- Process steps around the loop -->
  <circle cx="300" cy="80" r="30" fill="#c4b5fd"/>
  <text x="300" y="85" text-anchor="middle" font-family="Arial" font-size="12" fill="#4c1d95">Perfume</text>
  
  <circle cx="170" cy="200" r="30" fill="#ddd6fe"/>
  <text x="170" y="205" text-anchor="middle" font-family="Arial" font-size="12" fill="#4c1d95">Feedback</text>
  
  <circle cx="300" cy="320" r="30" fill="#e0e7ff"/>
  <text x="300" y="325" text-anchor="middle" font-family="Arial" font-size="12" fill="#4c1d95">Analysis</text>
  
  <circle cx="430" cy="200" r="30" fill="#ede9fe"/>
  <text x="430" y="205" text-anchor="middle" font-family="Arial" font-size="12" fill="#4c1d95">Refine</text>
  
  <!-- Arrows showing direction -->
  <path d="M290 110 L240 155" stroke="#6d28d9" stroke-width="2"/>
  <polygon points="240,150 235,160 245,155" fill="#6d28d9"/>
  
  <path d="M195 215 L270 305" stroke="#6d28d9" stroke-width="2"/>
  <polygon points="265,305 275,310 270,300" fill="#6d28d9"/>
  
  <path d="M310 290 L405 220" stroke="#6d28d9" stroke-width="2"/>
  <polygon points="400,225 410,215 405,225" fill="#6d28d9"/>
  
  <path d="M405 185 L325 95" stroke="#6d28d9" stroke-width="2"/>
  <polygon points="330,95 320,90 325,100" fill="#6d28d9"/>
  
  <!-- Enhancement sparkles -->
  <circle cx="250" cy="150" r="5" fill="#6d28d9"/>
  <circle cx="250" cy="250" r="5" fill="#6d28d9"/>
  <circle cx="350" cy="250" r="5" fill="#6d28d9"/>
  <circle cx="350" cy="150" r="5" fill="#6d28d9"/>
  
  <!-- Center improvement icon -->
  <circle cx="300" cy="200" r="40" fill="#f5f3ff" stroke="#6d28d9" stroke-width="2"/>
  <text x="300" y="190" text-anchor="middle" font-family="Arial" font-size="14" font-weight="bold" fill="#4c1d95">AI</text>
  <text x="300" y="210" text-anchor="middle" font-family="Arial" font-size="14" fill="#4c1d95">Learning</text>
</svg> 