<svg width="800" height="530" viewBox="0 0 800 530" fill="none" xmlns="http://www.w3.org/2000/svg">
  <rect width="800" height="530" fill="white" fill-opacity="0"/>
  
  <!-- Main perfume bottle -->
  <rect x="360" y="185" width="80" height="240" rx="14" fill="#e0e7ff" stroke="#6d28d9" stroke-width="3"/>
  <rect x="346" y="425" width="108" height="26" rx="7" fill="#8b5cf6" opacity="0.8"/>
  
  <!-- Bottle cap -->
  <rect x="380" y="152" width="40" height="33" rx="7" fill="#6d28d9"/>
  
  <!-- Liquid inside -->
  <rect x="373" y="198" width="54" height="212" rx="7" fill="#a78bfa" opacity="0.7"/>
  
  <!-- Random molecules inside bottle -->
  <circle cx="390" cy="220" r="6" fill="#6d28d9" opacity="0.8"/>
  <circle cx="410" cy="230" r="4" fill="#8b5cf6" opacity="0.7"/>
  <circle cx="385" cy="250" r="5" fill="#c4b5fd" opacity="0.8"/>
  <circle cx="400" cy="265" r="3" fill="#6d28d9" opacity="0.6"/>
  <circle cx="395" cy="280" r="6" fill="#8b5cf6" opacity="0.75"/>
  <circle cx="410" cy="295" r="5" fill="#c4b5fd" opacity="0.6"/>
  <circle cx="380" cy="305" r="4" fill="#a78bfa" opacity="0.7"/>
  <circle cx="400" cy="320" r="6" fill="#6d28d9" opacity="0.85"/>
  <circle cx="388" cy="340" r="5" fill="#c4b5fd" opacity="0.7"/>
  <circle cx="412" cy="355" r="4" fill="#8b5cf6" opacity="0.6"/>

  <!-- Labels -->
  <rect x="103" y="224" width="140" height="36" rx="5" fill="white" opacity="0.7"/>
  <text x="173" y="250" text-anchor="middle" font-family="Arial" font-size="24" font-weight="bold" fill="#4c1d95">Lavender</text>
  
  <rect x="103" y="330" width="140" height="36" rx="5" fill="white" opacity="0.7"/>
  <text x="173" y="356" text-anchor="middle" font-family="Arial" font-size="24" font-weight="bold" fill="#4c1d95">Bergamot</text>
  
  <rect x="557" y="224" width="140" height="36" rx="5" fill="white" opacity="0.7"/>
  <text x="627" y="250" text-anchor="middle" font-family="Arial" font-size="24" font-weight="bold" fill="#4c1d95">Lemon</text>
  
  <rect x="557" y="330" width="140" height="36" rx="5" fill="white" opacity="0.7"/>
  <text x="627" y="356" text-anchor="middle" font-family="Arial" font-size="24" font-weight="bold" fill="#4c1d95">Vanilla</text>
  
  <!-- Label lines -->
  <line x1="243" y1="242" x2="360" y2="242" stroke="#6d28d9" stroke-width="2"/>
  <line x1="243" y1="348" x2="360" y2="348" stroke="#6d28d9" stroke-width="2"/>
  <line x1="440" y1="242" x2="557" y2="242" stroke="#8b5cf6" stroke-width="2"/>
  <line x1="440" y1="348" x2="557" y2="348" stroke="#8b5cf6" stroke-width="2"/>
</svg>