<svg xmlns="http://www.w3.org/2000/svg" xmlns:xlink="http://www.w3.org/1999/xlink" width="500" zoomAndPan="magnify" viewBox="0 0 375 374.999991" height="500" preserveAspectRatio="xMidYMid meet" version="1.0"><defs><clipPath id="569ca8e348"><path d="M 43.75 12.761719 L 331 12.761719 L 331 362.261719 L 43.75 362.261719 Z M 43.75 12.761719 " clip-rule="nonzero"/></clipPath><clipPath id="74cf0e4475"><path d="M 117.511719 147.894531 L 196.722656 147.894531 L 196.722656 227.105469 L 117.511719 227.105469 Z M 117.511719 147.894531 " clip-rule="nonzero"/></clipPath><clipPath id="4cd2e2d0d2"><path d="M 157.117188 147.894531 C 135.242188 147.894531 117.511719 165.625 117.511719 187.5 C 117.511719 209.375 135.242188 227.105469 157.117188 227.105469 C 178.992188 227.105469 196.722656 209.375 196.722656 187.5 C 196.722656 165.625 178.992188 147.894531 157.117188 147.894531 Z M 157.117188 147.894531 " clip-rule="nonzero"/></clipPath></defs><g clip-path="url(#569ca8e348)"><path fill="#010101" d="M 331.175781 220.203125 C 331.175781 206.070312 319.71875 194.613281 305.585938 194.613281 C 291.457031 194.613281 279.996094 206.070312 279.996094 220.203125 C 279.996094 234.335938 291.457031 245.792969 305.585938 245.792969 C 319.71875 245.792969 331.175781 234.335938 331.175781 220.203125 Z M 214.746094 336.632812 C 214.746094 322.503906 203.289062 311.042969 189.15625 311.042969 C 175.023438 311.042969 163.566406 322.503906 163.566406 336.632812 C 163.566406 350.765625 175.023438 362.21875 189.15625 362.21875 C 203.289062 362.21875 214.746094 350.765625 214.746094 336.632812 Z M 69.40625 245.792969 C 55.277344 245.792969 43.820312 234.335938 43.820312 220.203125 C 43.820312 206.070312 55.277344 194.613281 69.40625 194.613281 C 83.539062 194.613281 94.996094 206.070312 94.996094 220.203125 C 94.996094 234.335938 83.539062 245.792969 69.40625 245.792969 Z M 173.953125 161.488281 C 173.953125 159.351562 172.222656 157.617188 170.085938 157.617188 C 167.949219 157.617188 166.21875 159.351562 166.21875 161.488281 C 166.21875 163.625 167.949219 165.355469 170.085938 165.355469 C 172.222656 165.355469 173.953125 163.625 173.953125 161.488281 Z M 189.867188 179.289062 C 189.867188 174.230469 185.761719 170.125 180.699219 170.125 C 175.640625 170.125 171.535156 174.230469 171.535156 179.289062 C 171.535156 184.355469 175.640625 188.457031 180.699219 188.457031 C 185.761719 188.457031 189.867188 184.355469 189.867188 179.289062 Z M 170.085938 197.738281 C 170.085938 187.550781 161.828125 179.289062 151.636719 179.289062 C 141.449219 179.289062 133.1875 187.550781 133.1875 197.738281 C 133.1875 207.929688 141.449219 216.1875 151.636719 216.1875 C 161.828125 216.1875 170.085938 207.929688 170.085938 197.738281 Z M 271.128906 220.207031 C 271.128906 265.476562 234.425781 302.171875 189.15625 302.171875 C 143.886719 302.171875 107.183594 265.476562 107.183594 220.207031 C 107.183594 220.199219 107.183594 220.191406 107.183594 220.1875 C 107.183594 219.296875 108.132812 218.738281 108.925781 219.140625 C 194.8125 262.785156 189.550781 166.71875 270.554688 217.800781 C 270.894531 218.019531 271.113281 218.394531 271.121094 218.800781 C 271.128906 219.261719 271.128906 219.730469 271.128906 220.207031 Z M 233.027344 338.484375 C 267.652344 325.921875 294.945312 298.972656 307.910156 264.535156 C 309.078125 261.421875 307.507812 257.949219 304.390625 256.777344 C 301.277344 255.605469 297.804688 257.179688 296.636719 260.292969 C 284.914062 291.429688 260.230469 315.804688 228.917969 327.160156 C 225.796875 328.296875 224.175781 331.75 225.3125 334.871094 C 226.199219 337.324219 228.507812 338.84375 230.972656 338.84375 C 231.65625 338.84375 232.347656 338.726562 233.027344 338.484375 Z M 154.019531 334.871094 C 155.152344 331.75 153.539062 328.296875 150.414062 327.160156 C 119.097656 315.804688 94.417969 291.429688 82.695312 260.292969 C 81.523438 257.179688 78.050781 255.605469 74.9375 256.777344 C 71.824219 257.949219 70.253906 261.421875 71.421875 264.535156 C 84.386719 298.972656 111.679688 325.921875 146.304688 338.484375 C 146.984375 338.726562 147.675781 338.84375 148.359375 338.84375 C 150.820312 338.84375 153.132812 337.324219 154.019531 334.871094 Z M 83.667969 182.785156 C 95.441406 148.96875 122.863281 122.386719 157.023438 111.667969 C 159.53125 110.882812 161.242188 108.554688 161.242188 105.921875 L 161.242188 18.765625 C 161.242188 15.4375 158.546875 12.746094 155.21875 12.746094 L 127.128906 12.746094 C 123.800781 12.746094 121.105469 15.4375 121.105469 18.765625 C 121.105469 22.09375 123.800781 24.789062 127.128906 24.789062 L 149.199219 24.789062 L 149.199219 101.585938 C 113.390625 114.246094 84.824219 142.832031 72.292969 178.820312 C 71.203125 181.964844 72.859375 185.398438 76 186.492188 C 76.65625 186.71875 77.324219 186.824219 77.980469 186.824219 C 80.472656 186.824219 82.804688 185.269531 83.667969 182.785156 Z M 302.269531 186.824219 C 299.777344 186.824219 297.449219 185.269531 296.585938 182.785156 C 284.8125 148.96875 257.390625 122.386719 223.230469 111.667969 C 220.71875 110.882812 219.011719 108.554688 219.011719 105.921875 L 219.011719 18.765625 C 219.011719 15.4375 221.707031 12.746094 225.035156 12.746094 L 253.128906 12.746094 C 256.453125 12.746094 259.148438 15.4375 259.148438 18.765625 C 259.148438 22.09375 256.453125 24.789062 253.128906 24.789062 L 231.058594 24.789062 L 231.058594 101.585938 C 266.863281 114.246094 295.425781 142.832031 307.957031 178.820312 C 309.050781 181.964844 307.394531 185.398438 304.25 186.492188 C 303.597656 186.71875 302.929688 186.824219 302.269531 186.824219 " fill-opacity="1" fill-rule="nonzero"/></g><g clip-path="url(#74cf0e4475)"><g clip-path="url(#4cd2e2d0d2)"><path fill="#ffffff" d="M 117.511719 147.894531 L 196.722656 147.894531 L 196.722656 227.105469 L 117.511719 227.105469 Z M 117.511719 147.894531 " fill-opacity="1" fill-rule="nonzero"/></g></g></svg>